<svg width="165" height="165" viewBox="0 0 165 165" fill="none" xmlns="http://www.w3.org/2000/svg">
<path d="M151.25 144.375V66.0732C151.25 56.978 151.25 52.4304 148.886 48.9084C146.522 45.3865 142.336 43.6976 133.963 40.3197L92.7135 23.6772C87.67 21.6424 85.1482 20.625 82.5 20.625C79.8518 20.625 77.33 21.6424 72.2865 23.6772L31.0368 40.3197C22.6643 43.6976 18.4781 45.3865 16.1141 48.9084C13.75 52.4304 13.75 56.978 13.75 66.0732V144.375" stroke="#BF4B37" stroke-width="10.3125" stroke-linecap="round" stroke-linejoin="round"/>
<path d="M110 130.625V144.375M55 130.625V144.375" stroke="#BF4B37" stroke-width="10.3125" stroke-linecap="round" stroke-linejoin="round"/>
<path d="M51.5625 96.25L53.23 89.5806C55.7309 79.5761 56.9814 74.5745 60.7113 71.6623C64.4411 68.75 69.597 68.75 79.9088 68.75H85.0912C95.403 68.75 100.559 68.75 104.289 71.6623C108.019 74.5745 109.269 79.5761 111.77 89.5806L113.438 96.25" stroke="#BF4B37" stroke-width="10.3125" stroke-linecap="round" stroke-linejoin="round"/>
<path d="M116.875 96.25H48.125C44.3281 96.25 41.25 99.3279 41.25 103.125V123.75C41.25 127.547 44.3281 130.625 48.125 130.625H116.875C120.672 130.625 123.75 127.547 123.75 123.75V103.125C123.75 99.3279 120.672 96.25 116.875 96.25Z" stroke="#BF4B37" stroke-width="10.3125" stroke-linecap="round" stroke-linejoin="round"/>
<path d="M58.4375 113.369V113.437" stroke="#BF4B37" stroke-width="10.3125" stroke-linecap="round" stroke-linejoin="round"/>
<path d="M106.562 113.369V113.437" stroke="#BF4B37" stroke-width="10.3125" stroke-linecap="round" stroke-linejoin="round"/>
</svg>
