<svg width="60" height="60" viewBox="0 0 60 60" fill="none" xmlns="http://www.w3.org/2000/svg">
<rect width="60" height="60" rx="14" fill="#E8B73C"/>
<path fill-rule="evenodd" clip-rule="evenodd" d="M19.0759 26.5135C17.3241 26.5135 16.9585 26.8573 16.9585 28.5042V31.4904C16.9585 33.1375 17.3241 33.4811 19.0759 33.4811H23.3108V45.4256C23.3108 47.0725 23.6764 47.4163 25.4282 47.4163H29.663C31.4149 47.4163 31.7804 47.0725 31.7804 45.4256V33.4811H36.5355C37.8642 33.4811 38.2066 33.2383 38.5716 32.0374L39.479 29.0512C40.1041 26.9938 39.7189 26.5135 37.443 26.5135H31.7804V21.5367C31.7804 20.4373 32.7284 19.546 33.8978 19.546H39.9244C41.6761 19.546 42.0418 19.2022 42.0418 17.5552V13.5737C42.0418 11.9267 41.6761 11.583 39.9244 11.583H33.8978C28.0507 11.583 23.3108 16.0394 23.3108 21.5367V26.5135H19.0759Z" stroke="white" stroke-width="3" stroke-linejoin="round"/>
</svg>
