<svg width="60" height="60" viewBox="0 0 60 60" fill="none" xmlns="http://www.w3.org/2000/svg">
<rect width="60" height="60" rx="14" fill="#E8B73C"/>
<path d="M12.479 29.5003C12.479 21.4766 12.479 17.4648 14.9716 14.9721C17.4643 12.4795 21.4761 12.4795 29.4998 12.4795C37.5235 12.4795 41.5354 12.4795 44.0281 14.9721C46.5207 17.4648 46.5207 21.4766 46.5207 29.5003C46.5207 37.5239 46.5207 41.5358 44.0281 44.0286C41.5354 46.5212 37.5235 46.5212 29.4998 46.5212C21.4761 46.5212 17.4643 46.5212 14.9716 44.0286C12.479 41.5358 12.479 37.5239 12.479 29.5003Z" stroke="white" stroke-width="2.6875" stroke-linejoin="round"/>
<path d="M37.5625 29.5C37.5625 33.9528 33.9528 37.5625 29.5 37.5625C25.0472 37.5625 21.4375 33.9528 21.4375 29.5C21.4375 25.0472 25.0472 21.4375 29.5 21.4375C33.9528 21.4375 37.5625 25.0472 37.5625 29.5Z" stroke="white" stroke-width="2.6875"/>
<path d="M39.3687 19.6455H39.3525" stroke="white" stroke-width="3.58333" stroke-linecap="round" stroke-linejoin="round"/>
</svg>
