<svg width="60" height="60" viewBox="0 0 60 60" fill="none" xmlns="http://www.w3.org/2000/svg">
<rect width="60" height="60" rx="14" fill="#E8B73C"/>
<path d="M29.5002 44.7288C32.7425 44.7288 35.8518 44.4085 38.7333 43.8212C42.3326 43.0875 44.1323 42.7206 45.7746 40.6091C47.4168 38.4976 47.4168 36.0738 47.4168 31.2259V27.7734C47.4168 22.9256 47.4168 20.5017 45.7746 18.3902C44.1323 16.2788 42.3326 15.9119 38.7333 15.1782C35.8518 14.5908 32.7425 14.2705 29.5002 14.2705C26.2578 14.2705 23.1485 14.5908 20.2669 15.1782C16.6676 15.9119 14.868 16.2788 13.2257 18.3902C11.5835 20.5017 11.5835 22.9256 11.5835 27.7734V31.2259C11.5835 36.0738 11.5835 38.4976 13.2257 40.6091C14.868 42.7206 16.6676 43.0875 20.2669 43.8212C23.1485 44.4085 26.2578 44.7288 29.5002 44.7288Z" stroke="white" stroke-width="2.6875"/>
<path d="M36.5988 30.0609C36.3329 31.1463 34.9182 31.9259 32.0888 33.4852C29.0112 35.1808 27.4725 36.0288 26.2263 35.7022C25.8042 35.5915 25.4154 35.3969 25.0889 35.133C24.125 34.3538 24.125 32.7359 24.125 29.5003C24.125 26.2648 24.125 24.6469 25.0889 23.8676C25.4154 23.6037 25.8042 23.4092 26.2263 23.2985C27.4725 22.9719 29.0112 23.8198 32.0888 25.5155C34.9182 27.0748 36.3329 27.8543 36.5988 28.9397C36.6892 29.3092 36.6892 29.6915 36.5988 30.0609Z" stroke="white" stroke-width="2.6875" stroke-linejoin="round"/>
</svg>
