<svg width="165" height="165" viewBox="0 0 165 165" fill="none" xmlns="http://www.w3.org/2000/svg">
<path d="M61.875 151.25L61.8882 123.734C61.8912 117.336 61.8927 114.137 62.938 111.614C64.3345 108.242 67.0138 105.564 70.3856 104.169C72.9101 103.125 76.109 103.125 82.5069 103.125C88.9068 103.125 92.1071 103.125 94.6323 104.17C98.0052 105.566 100.684 108.245 102.08 111.618C103.125 114.143 103.125 117.343 103.125 123.743V151.25" stroke="#BF4B37" stroke-width="11"/>
<path d="M48.7333 32.7417L41.8582 38.108C31.4312 46.2468 26.2177 50.3163 23.4213 56.0541C20.625 61.7919 20.625 68.4203 20.625 81.6771V96.0541C20.625 122.074 20.625 135.083 28.6795 143.167C36.7342 151.25 49.6977 151.25 75.625 151.25H89.375C115.302 151.25 128.266 151.25 136.32 143.167C144.375 135.083 144.375 122.074 144.375 96.0541V81.6771C144.375 68.4203 144.375 61.7919 141.579 56.0541C138.782 50.3163 133.569 46.2468 123.142 38.108L116.267 32.7417C100.046 20.0806 91.9353 13.75 82.5 13.75C73.0647 13.75 64.9541 20.0806 48.7333 32.7417Z" stroke="#BF4B37" stroke-width="11" stroke-linejoin="round"/>
</svg>
