<svg width="35" height="35" viewBox="0 0 35 35" fill="none" xmlns="http://www.w3.org/2000/svg">
<path d="M3.646 17.4999C3.646 10.969 3.646 7.70355 5.67489 5.67464C7.70379 3.64575 10.9693 3.64575 17.5002 3.64575C24.031 3.64575 27.2965 3.64575 29.3255 5.67464C31.3543 7.70355 31.3543 10.969 31.3543 17.4999C31.3543 24.0308 31.3543 27.2963 29.3255 29.3253C27.2965 31.3541 24.031 31.3541 17.5002 31.3541C10.9693 31.3541 7.70379 31.3541 5.67489 29.3253C3.646 27.2963 3.646 24.0308 3.646 17.4999Z" stroke="white" stroke-width="3"/>
<path d="M17.8534 24.7917V17.5001C17.8534 16.8126 17.8534 16.4689 17.6397 16.2552C17.4262 16.0417 17.0825 16.0417 16.395 16.0417" stroke="white" stroke-width="3" stroke-linecap="round" stroke-linejoin="round"/>
<path d="M17.4883 11.6667H17.5014" stroke="white" stroke-width="3" stroke-linecap="round" stroke-linejoin="round"/>
</svg>
