<svg width="34" height="34" viewBox="0 0 34 34" fill="none" xmlns="http://www.w3.org/2000/svg">
<path d="M31.1668 17.1258V13.0839C31.1668 10.3298 31.1668 8.95285 30.3369 8.09727C29.5071 7.24172 28.1714 7.24172 25.5002 7.24172H22.5555C21.2558 7.24172 21.2451 7.23918 20.0765 6.65304L15.3567 4.28582C13.386 3.29745 12.4007 2.80326 11.351 2.83761C10.3014 2.87195 9.34842 3.42955 7.44255 4.54477L5.70307 5.56261C4.30313 6.38177 3.60316 6.79136 3.21832 7.47273C2.8335 8.15411 2.8335 8.98389 2.8335 10.6434V22.3105C2.8335 24.491 2.8335 25.5813 3.31836 26.1882C3.64101 26.5918 4.09314 26.8634 4.593 26.9533C5.3442 27.0885 6.26393 26.5504 8.10331 25.4739C9.35237 24.7432 10.5545 23.9841 12.0487 24.19C13.3008 24.3624 14.4643 25.1542 15.5835 25.7154" stroke="white" stroke-width="2.125" stroke-linecap="round" stroke-linejoin="round"/>
<path d="M11.3335 2.83594V24.134" stroke="white" stroke-width="2.125" stroke-linejoin="round"/>
<path d="M21.25 7.0957V15.615" stroke="white" stroke-width="2.125" stroke-linecap="round" stroke-linejoin="round"/>
<path d="M28.4847 28.5816L31.0987 31.1642M29.9894 24.9871C29.9894 27.7733 27.7314 30.0319 24.946 30.0319C22.1605 30.0319 19.9023 27.7733 19.9023 24.9871C19.9023 22.201 22.1605 19.9424 24.946 19.9424C27.7314 19.9424 29.9894 22.201 29.9894 24.9871Z" stroke="white" stroke-width="2.125" stroke-linecap="round"/>
</svg>
