<svg width="48" height="44" viewBox="0 0 48 44" fill="none" xmlns="http://www.w3.org/2000/svg">
<path d="M45.6668 41.5001H43.5002C40.3555 41.5001 37.6025 39.6391 37.0002 37.1667C36.3978 39.6391 33.6449 41.5001 30.5002 41.5001C27.3555 41.5001 24.6025 39.6391 24.0002 37.1667C23.3978 39.6391 20.6449 41.5001 17.5002 41.5001C14.3555 41.5001 11.6024 39.6391 11.0002 37.1667C10.3979 39.6391 7.6448 41.5001 4.50016 41.5001H2.3335" stroke="#BF4B37" stroke-width="4" stroke-linecap="round" stroke-linejoin="round"/>
<path d="M39.1665 2.5L38.5926 2.69132C35.7326 3.64469 34.3023 4.12136 33.4844 5.25622C32.6665 6.39105 32.6665 7.89844 32.6665 10.9133V32.8333" stroke="#BF4B37" stroke-width="4" stroke-linecap="round" stroke-linejoin="round"/>
<path d="M21.8335 2.5L21.2595 2.69132C18.3994 3.64469 16.9694 4.12136 16.1515 5.25622C15.3335 6.39105 15.3335 7.89844 15.3335 10.9133V32.8333" stroke="#BF4B37" stroke-width="4" stroke-linecap="round" stroke-linejoin="round"/>
<path d="M15.3335 11.1667H32.6668M15.3335 19.8334H32.6668M15.3335 28.5001H32.6668" stroke="#BF4B37" stroke-width="4" stroke-linecap="round" stroke-linejoin="round"/>
</svg>
