<svg width="165" height="165" viewBox="0 0 165 165" fill="none" xmlns="http://www.w3.org/2000/svg">
<path d="M17.1875 82.5C17.1875 51.7114 17.1875 36.3171 26.7523 26.7523C36.3171 17.1875 51.7114 17.1875 82.5 17.1875C113.288 17.1875 128.683 17.1875 138.248 26.7523C147.813 36.3171 147.812 51.7114 147.812 82.5C147.812 113.288 147.813 128.683 138.248 138.248C128.683 147.813 113.288 147.812 82.5 147.812C51.7114 147.812 36.3171 147.813 26.7523 138.248C17.1875 128.683 17.1875 113.288 17.1875 82.5Z" stroke="#BF4B37" stroke-width="10.3125"/>
<path d="M55 70.906C62.8982 65.1942 72.3312 61.875 82.4629 61.875C92.6262 61.875 102.087 65.2151 110 70.9596M97.4483 89.375C92.9376 86.8746 87.8481 85.4679 82.4629 85.4679C77.1045 85.4679 72.039 86.8608 67.5453 89.3372" stroke="#BF4B37" stroke-width="10.3125" stroke-linecap="round"/>
<path d="M82.5 110H82.544" stroke="#BF4B37" stroke-width="13.75" stroke-linecap="round" stroke-linejoin="round"/>
</svg>
